<?xml version="1.0" standalone="no"?>
<!DOCTYPE svg PUBLIC "-//W3C//DTD SVG 20010904//EN"
 "http://www.w3.org/TR/2001/REC-SVG-20010904/DTD/svg10.dtd">
<svg version="1.0" xmlns="http://www.w3.org/2000/svg"
 width="240.000000pt" height="223.000000pt" viewBox="0 0 240.000000 223.000000"
 preserveAspectRatio="xMidYMid meet">

<g transform="translate(0.000000,223.000000) scale(0.100000,-0.100000)"
fill="#000000" stroke="none">
<path d="M1899 2188 c-81 -7 -175 -39 -377 -126 l-114 -49 -46 14 c-120 37
-263 52 -341 37 -39 -8 -39 -20 1 -42 58 -31 97 -75 109 -123 19 -73 19 -74
-122 -256 -69 -89 -106 -143 -162 -238 -16 -28 -62 -122 -107 -220 -10 -22
-41 -109 -69 -193 -28 -85 -60 -169 -71 -187 -27 -44 -74 -60 -235 -80 -145
-17 -278 -50 -296 -71 -20 -24 10 -44 77 -54 76 -11 120 -27 227 -84 48 -25
97 -46 108 -46 42 0 77 -28 93 -76 10 -29 38 -70 78 -113 37 -39 80 -99 103
-145 44 -85 60 -105 76 -89 5 5 10 100 12 224 l2 214 -28 65 c-15 36 -30 83
-33 105 -5 36 -1 47 47 115 81 114 205 231 409 385 102 76 241 183 309 237 68
54 129 97 135 95 6 -2 14 -21 18 -43 13 -74 8 -135 -18 -210 -14 -41 -22 -78
-19 -84 19 -31 162 109 209 205 29 60 56 167 56 227 0 51 13 80 55 127 34 37
69 95 112 183 18 38 33 49 33 26 0 -7 -7 -26 -15 -42 -8 -15 -15 -33 -15 -39
0 -16 50 34 67 68 9 17 52 67 95 112 97 98 98 112 13 129 -33 6 -73 17 -90 24
-41 17 -193 27 -286 18z m-667 -800 c-7 -7 -12 -8 -12 -2 0 14 12 26 19 19 2
-3 -1 -11 -7 -17z m-262 -368 c0 -5 -5 -10 -11 -10 -5 0 -7 5 -4 10 3 6 8 10
11 10 2 0 4 -4 4 -10z"/>
</g>
</svg>
