<svg width="141" height="18" viewBox="0 0 141 18" fill="none" xmlns="http://www.w3.org/2000/svg">
<path d="M9.44372 17.168C7.87572 17.168 6.43572 16.8 5.12372 16.064C3.81172 15.328 2.77172 14.312 2.00372 13.016C1.23572 11.704 0.851719 10.224 0.851719 8.576C0.851719 6.944 1.23572 5.48 2.00372 4.184C2.77172 2.872 3.81172 1.848 5.12372 1.112C6.43572 0.375999 7.87572 0.0079999 9.44372 0.0079999C11.0277 0.0079999 12.4677 0.375999 13.7637 1.112C15.0757 1.848 16.1077 2.872 16.8597 4.184C17.6277 5.48 18.0117 6.944 18.0117 8.576C18.0117 10.224 17.6277 11.704 16.8597 13.016C16.1077 14.312 15.0757 15.328 13.7637 16.064C12.4517 16.8 11.0117 17.168 9.44372 17.168ZM9.44372 14.168C10.4517 14.168 11.3397 13.944 12.1077 13.496C12.8757 13.032 13.4757 12.376 13.9077 11.528C14.3397 10.68 14.5557 9.696 14.5557 8.576C14.5557 7.456 14.3397 6.48 13.9077 5.648C13.4757 4.8 12.8757 4.152 12.1077 3.704C11.3397 3.256 10.4517 3.032 9.44372 3.032C8.43572 3.032 7.53972 3.256 6.75572 3.704C5.98772 4.152 5.38772 4.8 4.95572 5.648C4.52372 6.48 4.30772 7.456 4.30772 8.576C4.30772 9.696 4.52372 10.68 4.95572 11.528C5.38772 12.376 5.98772 13.032 6.75572 13.496C7.53972 13.944 8.43572 14.168 9.44372 14.168ZM19.6955 8.6C19.6955 6.952 20.0635 5.48 20.7995 4.184C21.5515 2.872 22.5675 1.856 23.8475 1.136C25.1435 0.4 26.5915 0.0319996 28.1915 0.0319996C30.0635 0.0319996 31.7035 0.512 33.1115 1.472C34.5195 2.432 35.5035 3.76 36.0635 5.456H32.1995C31.8155 4.656 31.2715 4.056 30.5675 3.656C29.8795 3.256 29.0795 3.056 28.1675 3.056C27.1915 3.056 26.3195 3.288 25.5515 3.752C24.7995 4.2 24.2075 4.84 23.7755 5.672C23.3595 6.504 23.1515 7.48 23.1515 8.6C23.1515 9.704 23.3595 10.68 23.7755 11.528C24.2075 12.36 24.7995 13.008 25.5515 13.472C26.3195 13.92 27.1915 14.144 28.1675 14.144C29.0795 14.144 29.8795 13.944 30.5675 13.544C31.2715 13.128 31.8155 12.52 32.1995 11.72H36.0635C35.5035 13.432 34.5195 14.768 33.1115 15.728C31.7195 16.672 30.0795 17.144 28.1915 17.144C26.5915 17.144 25.1435 16.784 23.8475 16.064C22.5675 15.328 21.5515 14.312 20.7995 13.016C20.0635 11.72 19.6955 10.248 19.6955 8.6ZM42.2933 2.96V7.16H47.9333V9.824H42.2933V14.264H48.6533V17H38.9333V0.223999H48.6533V2.96H42.2933ZM61.9788 13.808H55.3068L54.2028 17H50.6748L56.6988 0.223999H60.6108L66.6348 17H63.0828L61.9788 13.808ZM61.0668 11.12L58.6428 4.112L56.2188 11.12H61.0668ZM83.2145 17H79.8545L72.2465 5.504V17H68.8865V0.223999H72.2465L79.8545 11.744V0.223999H83.2145V17Z" fill="#1F7CB0"/>
<path d="M92.9189 0.079999C94.6949 0.079999 96.2469 0.439999 97.5749 1.16C98.9189 1.864 99.9509 2.856 100.671 4.136C101.391 5.416 101.751 6.88 101.751 8.528C101.751 10.16 101.383 11.616 100.647 12.896C99.9269 14.176 98.8949 15.184 97.5509 15.92C96.2229 16.64 94.6789 17 92.9189 17H86.2229V0.079999H92.9189ZM92.5589 12.848C93.9349 12.848 95.0149 12.472 95.7989 11.72C96.5829 10.968 96.9749 9.904 96.9749 8.528C96.9749 7.136 96.5829 6.064 95.7989 5.312C95.0149 4.544 93.9349 4.16 92.5589 4.16H90.9269V12.848H92.5589ZM108.575 0.079999V17H103.871V0.079999H108.575ZM127.718 0.079999L121.886 17H115.862L110.006 0.079999H115.046L118.886 12.296L122.702 0.079999H127.718ZM133.888 3.848V6.608H139.288V10.184H133.888V13.232H140.008V17H129.184V0.079999H140.008V3.848H133.888Z" fill="#2C4A84"/>
</svg>
