<svg width="80" height="16" viewBox="0 0 80 16" fill="none" xmlns="http://www.w3.org/2000/svg">
<path d="M8.00016 1.33337L10.0602 5.50671L14.6668 6.18004L11.3335 9.42671L12.1202 14.0134L8.00016 11.8467L3.88016 14.0134L4.66683 9.42671L1.3335 6.18004L5.94016 5.50671L8.00016 1.33337Z" fill="#D7FFF1" stroke="#D7FFF1" stroke-linecap="round" stroke-linejoin="round"/>
<path d="M24.0002 1.33337L26.0602 5.50671L30.6668 6.18004L27.3335 9.42671L28.1202 14.0134L24.0002 11.8467L19.8802 14.0134L20.6668 9.42671L17.3335 6.18004L21.9402 5.50671L24.0002 1.33337Z" fill="#D7FFF1" stroke="#D7FFF1" stroke-linecap="round" stroke-linejoin="round"/>
<path d="M40.0002 1.33337L42.0602 5.50671L46.6668 6.18004L43.3335 9.42671L44.1202 14.0134L40.0002 11.8467L35.8802 14.0134L36.6668 9.42671L33.3335 6.18004L37.9402 5.50671L40.0002 1.33337Z" fill="#D7FFF1" stroke="#D7FFF1" stroke-linecap="round" stroke-linejoin="round"/>
<path d="M56.0002 1.33337L58.0602 5.50671L62.6668 6.18004L59.3335 9.42671L60.1202 14.0134L56.0002 11.8467L51.8802 14.0134L52.6668 9.42671L49.3335 6.18004L53.9402 5.50671L56.0002 1.33337Z" fill="#D7FFF1" stroke="#D7FFF1" stroke-linecap="round" stroke-linejoin="round"/>
<path d="M72.0002 1.33337L74.0602 5.50671L78.6668 6.18004L75.3335 9.42671L76.1202 14.0134L72.0002 11.8467L67.8802 14.0134L68.6668 9.42671L65.3335 6.18004L69.9402 5.50671L72.0002 1.33337Z" fill="#D7FFF1" stroke="#D7FFF1" stroke-linecap="round" stroke-linejoin="round"/>
</svg>
